<?xml version="1.0" encoding="UTF-8" standalone="no"?>
<svg
   xmlns:dc="http://purl.org/dc/elements/1.1/"
   xmlns:cc="http://creativecommons.org/ns#"
   xmlns:rdf="http://www.w3.org/1999/02/22-rdf-syntax-ns#"
   xmlns:svg="http://www.w3.org/2000/svg"
   xmlns="http://www.w3.org/2000/svg"
   xmlns:sodipodi="http://sodipodi.sourceforge.net/DTD/sodipodi-0.dtd"
   xmlns:inkscape="http://www.inkscape.org/namespaces/inkscape"
   xml:space="preserve"
   style="enable-background:new 0 0 1840 512;"
   viewBox="0 0 1840 512"
   y="0px"
   x="0px"
   id="Layer_1"
   version="1.1"
   sodipodi:docname="logo.svg"
   inkscape:version="0.92.4 (5da689c313, 2019-01-14)"><sodipodi:namedview
   pagecolor="#ffffff"
   bordercolor="#666666"
   borderopacity="1"
   objecttolerance="10"
   gridtolerance="10"
   guidetolerance="10"
   inkscape:pageopacity="0"
   inkscape:pageshadow="2"
   inkscape:window-width="1920"
   inkscape:window-height="1137"
   id="namedview843"
   showgrid="false"
   inkscape:zoom="0.54378049"
   inkscape:cx="868.10955"
   inkscape:cy="123.12133"
   inkscape:window-x="-8"
   inkscape:window-y="-8"
   inkscape:window-maximized="1"
   inkscape:current-layer="Layer_1" /><metadata
   id="metadata4570"><rdf:RDF><cc:Work
       rdf:about=""><dc:format>image/svg+xml</dc:format><dc:type
         rdf:resource="http://purl.org/dc/dcmitype/StillImage" /><dc:title></dc:title></cc:Work></rdf:RDF></metadata><defs
   id="defs4568" />
<style
   id="style4545"
   type="text/css">
	.st0{fill:#FFFFFF;}
	.st1{fill:url(#SVGID_1_);}
	.st2{fill:url(#SVGID_2_);}
</style>


<g
   id="g4640"
   transform="translate(-17.903917,23.846681)"><path
     id="path4549"
     d="m 923.57227,36.830078 c -15.27166,0 -30.54344,5.826634 -42.19532,17.478516 -17.25726,17.257257 -21.71992,42.450444 -13.41797,63.828126 h -56.21289 c -32.9565,0 -59.67382,26.71537 -59.67382,59.67187 0,24.71365 15.02316,45.91931 36.43554,54.98047 l -27.42578,27.42578 c -23.30376,23.30376 -23.30376,61.08687 0,84.39063 19.85627,19.85627 50.21905,22.78013 73.18555,8.79883 a 154.74205,154.74205 0 0 0 131.89453,74.07226 154.74205,154.74205 0 0 0 149.55269,-115.34765 30.660276,21.817345 9.387857 0 1 -26.0625,4.95312 30.660276,21.817345 9.387857 0 1 -26.8066,-22.45117 30.660276,21.817345 57.133574 0 1 -34.1367,-14.36719 30.660276,21.817345 57.133574 0 1 -3.0938,-32.71679 30.660276,21.817345 85.930008 0 1 -19.6562,-28.74415 30.660276,21.817345 85.930008 0 1 16.4238,-31.54687 21.817345,30.660276 34.726845 0 1 5.1738,-30.70703 21.817345,30.660276 34.726845 0 1 24.8243,-15.62695 L 965.76758,54.308594 C 954.1157,42.656712 938.84393,36.830078 923.57227,36.830078 Z"
     style="fill:#ca9b54;fill-opacity:1;stroke:none;stroke-width:4;stroke-linejoin:miter;stroke-miterlimit:4;stroke-dasharray:none;stroke-opacity:1"
     inkscape:connector-curvature="0" /><path
     id="circle4568"
     d="m 966.16211,200.59961 a 72.136238,72.136238 0 0 0 -72.13672,72.13477 72.136238,72.136238 0 0 0 72.13672,72.13671 72.136238,72.136238 0 0 0 70.18559,-55.79297 30.660276,21.817345 57.133574 0 1 -7.6387,-8.81445 30.660276,21.817345 57.133574 0 1 -3.0938,-32.71679 30.660276,21.817345 85.930008 0 1 -19.6562,-28.74415 30.660276,21.817345 85.930008 0 1 0.029,-6.16015 72.136238,72.136238 0 0 0 -39.82619,-12.04297 z"
     style="fill:#ffffff;fill-opacity:1;stroke:none;stroke-width:0;stroke-linejoin:miter;stroke-miterlimit:4;stroke-dasharray:none;stroke-opacity:1"
     inkscape:connector-curvature="0" /><circle
     r="53.28672"
     cy="272.73499"
     cx="966.16254"
     id="circle4571"
     style="fill:#502200;fill-opacity:1;stroke:none;stroke-width:4;stroke-linejoin:miter;stroke-miterlimit:4;stroke-dasharray:none;stroke-opacity:1" /><path
     inkscape:connector-curvature="0"
     id="circle4573"
     d="m 965.56034,125.33562 c -9.64188,0.44721 -18.66036,7.79803 -20.6005,17.32743 -2.4809,12.01018 4.10654,25.29134 15.23917,30.48117 6.66219,3.05009 14.99632,2.74442 21.03815,-1.5862 7.15481,-4.98974 10.78924,-14.20496 9.65116,-22.76832 -0.88466,-8.21911 -5.77939,-15.9295 -12.94806,-20.08727 -3.71282,-2.22053 -8.03414,-3.52024 -12.37992,-3.36681 z"
     style="fill:#502200;fill-opacity:0.66666667;stroke:none;stroke-width:4;stroke-linejoin:miter;stroke-miterlimit:4;stroke-dasharray:none;stroke-opacity:1" /><path
     style="fill:#502200;fill-opacity:0.66666667;stroke:none;stroke-width:4;stroke-linejoin:miter;stroke-miterlimit:4;stroke-dasharray:none;stroke-opacity:1"
     d="m 864.05709,140.62072 c -4.8852,-5.58885 -13.76461,-7.6138 -20.61626,-4.37777 -8.65238,4.05701 -13.76184,14.15187 -11.66897,23.24085 1.28709,5.41345 5.45941,10.28163 11.03878,11.91263 6.52098,1.99549 13.98687,-0.077 18.76706,-4.717 4.68724,-4.32864 7.14209,-10.83259 6.30166,-17.06218 -0.39355,-3.25746 -1.65034,-6.45529 -3.82227,-8.99653 z"
     id="path4577"
     inkscape:connector-curvature="0" /><path
     inkscape:connector-curvature="0"
     id="path4579"
     d="m 852.92103,225.171 c -8.31689,-2.71791 -18.61593,0.56564 -23.72061,7.95114 -6.46374,9.29669 -5.72021,22.57113 1.8084,30.50445 4.52565,4.70077 11.68508,7.11801 18.36891,5.4174 7.86468,-1.89741 14.28807,-8.47519 16.43827,-16.0366 2.23939,-7.19077 0.9025,-15.24071 -3.64886,-21.03484 -2.33286,-3.05733 -5.51504,-5.53609 -9.24611,-6.80155 z"
     style="fill:#502200;fill-opacity:0.66666667;stroke:none;stroke-width:4;stroke-linejoin:miter;stroke-miterlimit:4;stroke-dasharray:none;stroke-opacity:1" /><path
     style="fill:#502200;fill-opacity:0.66666667;stroke:none;stroke-width:4;stroke-linejoin:miter;stroke-miterlimit:4;stroke-dasharray:none;stroke-opacity:1"
     d="m 984.11118,363.19982 c -9.58946,-3.02091 -21.46437,0.62869 -27.35012,8.83754 -7.45276,10.3331 -6.59546,25.08739 2.08511,33.90512 5.21812,5.22482 13.47302,7.91154 21.17955,6.02134 9.06806,-2.10894 16.47429,-9.42001 18.9535,-17.82438 2.58208,-7.99241 1.04058,-16.93976 -4.20718,-23.37983 -2.68981,-3.39816 -6.3589,-6.15326 -10.66086,-7.55979 z"
     id="path4581"
     inkscape:connector-curvature="0" /><path
     inkscape:connector-curvature="0"
     id="path4583"
     d="m 920.63371,82.667189 c -3.72367,-4.697105 -10.49186,-6.398958 -15.71443,-3.679262 -6.59515,3.409682 -10.48975,11.893829 -8.8945,19.532589 0.98107,4.549694 4.16136,8.641114 8.41415,10.011874 4.97052,1.6771 10.66128,-0.0647 14.30491,-3.96436 3.57277,-3.63797 5.44395,-9.104174 4.80334,-14.339774 -0.29998,-2.737711 -1.25795,-5.425302 -2.91347,-7.561067 z"
     style="fill:#502200;fill-opacity:0.66666667;stroke:none;stroke-width:4;stroke-linejoin:miter;stroke-miterlimit:4;stroke-dasharray:none;stroke-opacity:1" /><path
     style="fill:#502200;fill-opacity:0.66666667;stroke:none;stroke-width:4;stroke-linejoin:miter;stroke-miterlimit:4;stroke-dasharray:none;stroke-opacity:1"
     d="m 882.47493,328.17067 c -3.72367,-4.69711 -10.49186,-6.39896 -15.71443,-3.67927 -6.59515,3.40969 -10.48975,11.89383 -8.8945,19.53259 0.98107,4.5497 4.16136,8.64112 8.41415,10.01188 4.97052,1.6771 10.66128,-0.0647 14.30491,-3.96436 3.57277,-3.63797 5.44395,-9.10418 4.80334,-14.33978 -0.29998,-2.73771 -1.25795,-5.4253 -2.91347,-7.56106 z"
     id="path4585"
     inkscape:connector-curvature="0" /><path
     inkscape:connector-curvature="0"
     id="path4587"
     d="m 807.9963,303.80422 c -3.7236,-4.69711 -10.4918,-6.39896 -15.7144,-3.67927 -6.5951,3.40969 -10.4897,11.89383 -8.8945,19.53259 0.9811,4.5497 4.1614,8.64112 8.4142,10.01188 4.9705,1.6771 10.6612,-0.0647 14.3049,-3.96436 3.5727,-3.63797 5.4439,-9.10418 4.8033,-14.33978 -0.3,-2.73771 -1.2579,-5.4253 -2.9135,-7.56106 z"
     style="fill:#502200;fill-opacity:0.66666667;stroke:none;stroke-width:4;stroke-linejoin:miter;stroke-miterlimit:4;stroke-dasharray:none;stroke-opacity:1" /><path
     style="fill:#ca9b54;fill-opacity:1;stroke:none;stroke-width:4;stroke-linejoin:miter;stroke-miterlimit:4;stroke-dasharray:none;stroke-opacity:1"
     d="m 1081.5933,216.35038 c -7.4752,-3.25377 -16.4718,-0.92918 -20.7056,5.72519 -5.3635,8.37352 -4.1855,21.11697 2.7952,29.29225 4.1935,4.84932 10.6313,7.72443 16.4867,6.62703 6.894,-1.19221 12.328,-6.97078 13.9373,-14.02647 1.703,-6.69461 0.2037,-14.49256 -4.0555,-20.3886 -2.1865,-3.10569 -5.1029,-5.72559 -8.4581,-7.2294 z"
     id="path4621"
     inkscape:connector-curvature="0" /><path
     inkscape:connector-curvature="0"
     id="path4623"
     d="m 1072.4297,172.43563 c -5.1704,3.63629 -7.3034,10.37131 -4.6633,15.64241 3.3077,6.65625 12.1377,10.70588 20.3321,9.25167 4.8824,-0.89702 9.3829,-4.00107 11.0434,-8.22745 2.0206,-4.93835 0.4422,-10.65969 -3.5276,-14.37401 -3.695,-3.63888 -9.4147,-5.61017 -15.0095,-5.06605 -2.9238,0.24947 -5.8261,1.15775 -8.1751,2.77343 z"
     style="fill:#ca9b54;fill-opacity:1;stroke:none;stroke-width:3.99999976;stroke-linejoin:miter;stroke-miterlimit:4;stroke-dasharray:none;stroke-opacity:1" /><path
     style="fill:#ca9b54;fill-opacity:1;stroke:none;stroke-width:3.99999976;stroke-linejoin:miter;stroke-miterlimit:4;stroke-dasharray:none;stroke-opacity:1"
     d="m 1112.21,195.68547 c -3.7466,2.80196 -5.2922,7.99167 -3.3792,12.05334 2.3969,5.129 8.7953,8.24947 14.7331,7.12892 3.5379,-0.69121 6.7991,-3.08305 8.0023,-6.3397 1.4642,-3.80527 0.3205,-8.21388 -2.5561,-11.07597 -2.6775,-2.80396 -6.8222,-4.32294 -10.8763,-3.90367 -2.1186,0.19223 -4.2217,0.89211 -5.9238,2.13708 z"
     id="path4625"
     inkscape:connector-curvature="0" /></g></svg>