<?xml version="1.0" encoding="UTF-8" standalone="no"?>
<svg
   xmlns:dc="http://purl.org/dc/elements/1.1/"
   xmlns:cc="http://creativecommons.org/ns#"
   xmlns:rdf="http://www.w3.org/1999/02/22-rdf-syntax-ns#"
   xmlns:svg="http://www.w3.org/2000/svg"
   xmlns="http://www.w3.org/2000/svg"
   version="1.1"
   id="Layer_1"
   x="0px"
   y="0px"
   viewBox="0 0 1840 512"
   style="enable-background:new 0 0 1840 512;"
   xml:space="preserve"><metadata
   id="metadata4570"><rdf:RDF><cc:Work
       rdf:about=""><dc:format>image/svg+xml</dc:format><dc:type
         rdf:resource="http://purl.org/dc/dcmitype/StillImage" /><dc:title></dc:title></cc:Work></rdf:RDF></metadata><defs
   id="defs4568" />
<style
   type="text/css"
   id="style4545">
	.st0{fill:#FFFFFF;}
	.st1{fill:url(#SVGID_1_);}
	.st2{fill:url(#SVGID_2_);}
</style>


<g
   transform="translate(-17.903917,23.846681)"
   id="g4640"><path
     id="path4549"
     transform="translate(17.903917,-23.846681)"
     d="m 948.25781,368.7168 c -39.83936,2.7e-4 -72.13591,-32.29541 -72.13672,-72.13477 8.2e-4,-39.83936 32.29736,-72.13503 72.13672,-72.13476 14.16375,0.0157 28.00948,4.20077 39.81055,12.0332 0.94728,-12.71222 7.50285,-22.84988 16.41014,-25.37695 -3.851,-8.53923 -1.8156,-20.61974 5.1738,-30.70704 6.4345,-9.26918 15.9701,-15.27186 24.8243,-15.62695 L 947.86328,78.15625 C 936.2114,66.504368 920.93963,60.677734 905.66797,60.677734 c -15.27166,0 -30.54343,5.826634 -42.19531,17.478516 -17.25726,17.257257 -21.71992,42.45044 -13.41797,63.82813 H 793.8418 c -32.9565,0 -59.67383,26.71342 -59.67383,59.66992 0,24.71365 15.02317,45.91931 36.43555,54.98047 l -27.42579,27.42578 c -23.30376,23.30376 -23.30376,61.08881 0,84.39257 19.85627,19.85627 50.21905,22.78013 73.18555,8.79883 28.07848,45.96115 78.03521,74.01623 131.89453,74.07032 70.25509,-0.041 131.66619,-47.40562 149.55269,-115.34571 -6.6027,4.71133 -16.3064,6.55551 -26.0625,4.95313 -14.5379,-2.41064 -25.7956,-11.83928 -26.8066,-22.45117 -7.5388,4.22674 -17.7271,2.23653 -26.498,-5.55469 -7.5933,32.64407 -36.67004,55.75817 -70.18559,55.79297 z"
     style="fill:#ca9b54;fill-opacity:1;stroke:none;stroke-width:4;stroke-linejoin:miter;stroke-miterlimit:4;stroke-dasharray:none;stroke-opacity:1" /><circle
     style="fill:#502200;fill-opacity:1;stroke:none;stroke-width:4;stroke-linejoin:miter;stroke-miterlimit:4;stroke-dasharray:none;stroke-opacity:1"
     id="circle4571"
     cx="966.16254"
     cy="272.73499"
     r="53.28672" /><path
     style="fill:#502200;fill-opacity:0.66666667;stroke:none;stroke-width:4;stroke-linejoin:miter;stroke-miterlimit:4;stroke-dasharray:none;stroke-opacity:1"
     d="m 965.56034,125.33562 c -9.64188,0.44721 -18.66036,7.79803 -20.6005,17.32743 -2.4809,12.01018 4.10654,25.29134 15.23917,30.48117 6.66219,3.05009 14.99632,2.74442 21.03815,-1.5862 7.15481,-4.98974 10.78924,-14.20496 9.65116,-22.76832 -0.88466,-8.21911 -5.77939,-15.9295 -12.94806,-20.08727 -3.71282,-2.22053 -8.03414,-3.52024 -12.37992,-3.36681 z"
     id="circle4573" /><path
     id="path4577"
     d="m 864.05709,140.62072 c -4.8852,-5.58885 -13.76461,-7.6138 -20.61626,-4.37777 -8.65238,4.05701 -13.76184,14.15187 -11.66897,23.24085 1.28709,5.41345 5.45941,10.28163 11.03878,11.91263 6.52098,1.99549 13.98687,-0.077 18.76706,-4.717 4.68724,-4.32864 7.14209,-10.83259 6.30166,-17.06218 -0.39355,-3.25746 -1.65034,-6.45529 -3.82227,-8.99653 z"
     style="fill:#502200;fill-opacity:0.66666667;stroke:none;stroke-width:4;stroke-linejoin:miter;stroke-miterlimit:4;stroke-dasharray:none;stroke-opacity:1" /><path
     style="fill:#502200;fill-opacity:0.66666667;stroke:none;stroke-width:4;stroke-linejoin:miter;stroke-miterlimit:4;stroke-dasharray:none;stroke-opacity:1"
     d="m 852.92103,225.171 c -8.31689,-2.71791 -18.61593,0.56564 -23.72061,7.95114 -6.46374,9.29669 -5.72021,22.57113 1.8084,30.50445 4.52565,4.70077 11.68508,7.11801 18.36891,5.4174 7.86468,-1.89741 14.28807,-8.47519 16.43827,-16.0366 2.23939,-7.19077 0.9025,-15.24071 -3.64886,-21.03484 -2.33286,-3.05733 -5.51504,-5.53609 -9.24611,-6.80155 z"
     id="path4579" /><path
     id="path4581"
     d="m 984.11118,363.19982 c -9.58946,-3.02091 -21.46437,0.62869 -27.35012,8.83754 -7.45276,10.3331 -6.59546,25.08739 2.08511,33.90512 5.21812,5.22482 13.47302,7.91154 21.17955,6.02134 9.06806,-2.10894 16.47429,-9.42001 18.9535,-17.82438 2.58208,-7.99241 1.04058,-16.93976 -4.20718,-23.37983 -2.68981,-3.39816 -6.3589,-6.15326 -10.66086,-7.55979 z"
     style="fill:#502200;fill-opacity:0.66666667;stroke:none;stroke-width:4;stroke-linejoin:miter;stroke-miterlimit:4;stroke-dasharray:none;stroke-opacity:1" /><path
     style="fill:#502200;fill-opacity:0.66666667;stroke:none;stroke-width:4;stroke-linejoin:miter;stroke-miterlimit:4;stroke-dasharray:none;stroke-opacity:1"
     d="m 920.63371,82.667189 c -3.72367,-4.697105 -10.49186,-6.398958 -15.71443,-3.679262 -6.59515,3.409682 -10.48975,11.893829 -8.8945,19.532589 0.98107,4.549694 4.16136,8.641114 8.41415,10.011874 4.97052,1.6771 10.66128,-0.0647 14.30491,-3.96436 3.57277,-3.63797 5.44395,-9.104174 4.80334,-14.339774 -0.29998,-2.737711 -1.25795,-5.425302 -2.91347,-7.561067 z"
     id="path4583" /><path
     id="path4585"
     d="m 882.47493,328.17067 c -3.72367,-4.69711 -10.49186,-6.39896 -15.71443,-3.67927 -6.59515,3.40969 -10.48975,11.89383 -8.8945,19.53259 0.98107,4.5497 4.16136,8.64112 8.41415,10.01188 4.97052,1.6771 10.66128,-0.0647 14.30491,-3.96436 3.57277,-3.63797 5.44395,-9.10418 4.80334,-14.33978 -0.29998,-2.73771 -1.25795,-5.4253 -2.91347,-7.56106 z"
     style="fill:#502200;fill-opacity:0.66666667;stroke:none;stroke-width:4;stroke-linejoin:miter;stroke-miterlimit:4;stroke-dasharray:none;stroke-opacity:1" /><path
     style="fill:#502200;fill-opacity:0.66666667;stroke:none;stroke-width:4;stroke-linejoin:miter;stroke-miterlimit:4;stroke-dasharray:none;stroke-opacity:1"
     d="m 807.9963,303.80422 c -3.7236,-4.69711 -10.4918,-6.39896 -15.7144,-3.67927 -6.5951,3.40969 -10.4897,11.89383 -8.8945,19.53259 0.9811,4.5497 4.1614,8.64112 8.4142,10.01188 4.9705,1.6771 10.6612,-0.0647 14.3049,-3.96436 3.5727,-3.63797 5.4439,-9.10418 4.8033,-14.33978 -0.3,-2.73771 -1.2579,-5.4253 -2.9135,-7.56106 z"
     id="path4587" /><path
     id="path4621"
     d="m 1081.5933,216.35038 c -7.4752,-3.25377 -16.4718,-0.92918 -20.7056,5.72519 -5.3635,8.37352 -4.1855,21.11697 2.7952,29.29225 4.1935,4.84932 10.6313,7.72443 16.4867,6.62703 6.894,-1.19221 12.328,-6.97078 13.9373,-14.02647 1.703,-6.69461 0.2037,-14.49256 -4.0555,-20.3886 -2.1865,-3.10569 -5.1029,-5.72559 -8.4581,-7.2294 z"
     style="fill:#ca9b54;fill-opacity:1;stroke:none;stroke-width:4;stroke-linejoin:miter;stroke-miterlimit:4;stroke-dasharray:none;stroke-opacity:1" /><path
     style="fill:#ca9b54;fill-opacity:1;stroke:none;stroke-width:3.99999976;stroke-linejoin:miter;stroke-miterlimit:4;stroke-dasharray:none;stroke-opacity:1"
     d="m 1072.4297,172.43563 c -5.1704,3.63629 -7.3034,10.37131 -4.6633,15.64241 3.3077,6.65625 12.1377,10.70588 20.3321,9.25167 4.8824,-0.89702 9.3829,-4.00107 11.0434,-8.22745 2.0206,-4.93835 0.4422,-10.65969 -3.5276,-14.37401 -3.695,-3.63888 -9.4147,-5.61017 -15.0095,-5.06605 -2.9238,0.24947 -5.8261,1.15775 -8.1751,2.77343 z"
     id="path4623" /><path
     id="path4625"
     d="m 1112.21,195.68547 c -3.7466,2.80196 -5.2922,7.99167 -3.3792,12.05334 2.3969,5.129 8.7953,8.24947 14.7331,7.12892 3.5379,-0.69121 6.7991,-3.08305 8.0023,-6.3397 1.4642,-3.80527 0.3205,-8.21388 -2.5561,-11.07597 -2.6775,-2.80396 -6.8222,-4.32294 -10.8763,-3.90367 -2.1186,0.19223 -4.2217,0.89211 -5.9238,2.13708 z"
     style="fill:#ca9b54;fill-opacity:1;stroke:none;stroke-width:3.99999976;stroke-linejoin:miter;stroke-miterlimit:4;stroke-dasharray:none;stroke-opacity:1" /></g></svg>